<svg width="16" height="16" viewBox="0 0 16 16" fill="none" xmlns="http://www.w3.org/2000/svg">
<path fill-rule="evenodd" clip-rule="evenodd" d="M8 16C12.4182 16 16 12.4182 16 8C16 3.58181 12.4182 0 8 0C3.58204 0 0 3.58193 0 8C0 12.4181 3.58204 16 8 16ZM11.2068 5.07917C11.5038 4.78212 11.9854 4.78212 12.2825 5.07917C12.5795 5.37622 12.5795 5.85783 12.2825 6.15487L7.1761 11.2613C6.87905 11.5583 6.39744 11.5583 6.10039 11.2613L3.71741 8.87828C3.42037 8.58123 3.42037 8.09962 3.71741 7.80257C4.01446 7.50553 4.49607 7.50553 4.79312 7.80257L6.63825 9.6477L11.2068 5.07917Z" fill="#49AD5B"/>
</svg>
