<svg width="24" height="24" viewBox="0 0 24 24" fill="none" xmlns="http://www.w3.org/2000/svg">
<mask id="mask0_6392_6257" style="mask-type:alpha" maskUnits="userSpaceOnUse" x="1" y="1" width="22" height="23">
<path fill-rule="evenodd" clip-rule="evenodd" d="M21.1046 10.4094C20.8986 10.9141 20.795 11.4548 20.8 12C20.7945 12.5452 20.8978 13.086 21.1038 13.5909C21.3099 14.0957 21.6145 14.5543 22 14.94L22.48 15.39L22.24 16C21.8286 17.0332 21.2621 17.9976 20.56 18.86L20.15 19.37L19.52 19.2C18.4553 18.9186 17.3225 19.0698 16.3689 19.6206C15.4153 20.1715 14.7183 21.0771 14.43 22.14V22.24L14.22 22.79L13.64 22.87C13.0985 22.9633 12.5495 23.0068 12 23C11.4511 23.0002 10.903 22.9601 10.36 22.88L9.71001 22.78L9.54001 22.14C9.24951 21.0764 8.55054 20.1706 7.59532 19.6199C6.6401 19.0693 5.50601 18.9183 4.44001 19.2L3.81001 19.37L3.40001 18.86C2.71716 17.9969 2.16771 17.0362 1.77001 16.01L1.51001 15.34L2.06001 14.88C2.81546 14.0959 3.23254 13.0464 3.22132 11.9577C3.21009 10.869 2.77147 9.82828 2.00001 9.05997L1.54001 8.60997L1.78001 7.99997C2.20067 6.98764 2.7703 6.04388 3.47001 5.19997L3.88001 4.68997L4.51001 4.85997C5.03991 4.99666 5.59158 5.02745 6.1334 4.95058C6.67522 4.87372 7.19655 4.6907 7.66752 4.41202C8.13849 4.13333 8.54985 3.76446 8.87803 3.32654C9.20621 2.88862 9.44476 2.39024 9.58001 1.85997V1.75997L9.79001 1.20997L10.37 1.12997C11.4575 0.970022 12.5625 0.970022 13.65 1.12997L14.3 1.22997L14.47 1.86997C14.758 2.93467 15.457 3.84142 16.4134 4.39087C17.3698 4.94031 18.5052 5.08746 19.57 4.79997L20.2 4.62997L20.61 5.13997C21.2972 6.00551 21.8501 6.96967 22.25 7.99997L22.47 8.59997L22 9.05997C21.615 9.44595 21.3106 9.90466 21.1046 10.4094ZM19.4 17.09C19.6923 16.686 19.9436 16.2539 20.15 15.8C19.2811 14.7106 18.8078 13.3584 18.8078 11.965C18.8078 10.5715 19.2811 9.21934 20.15 8.12997C19.9353 7.68042 19.6845 7.249 19.4 6.83997C18.0209 7.04377 16.6134 6.7753 15.4062 6.07819C14.199 5.38107 13.2629 4.29626 12.75 2.99997C12.2575 2.95997 11.7625 2.95997 11.27 2.99997C10.777 4.31478 9.84763 5.42048 8.63718 6.13219C7.42673 6.8439 6.00863 7.11846 4.62001 6.90997C4.33192 7.31667 4.08091 7.7484 3.87001 8.19997C4.73895 9.28934 5.21218 10.6415 5.21218 12.035C5.21218 13.4284 4.73895 14.7806 3.87001 15.87C4.08475 16.3195 4.33557 16.7509 4.62001 17.16C5.99909 16.9562 7.40657 17.2246 8.61381 17.9218C9.82105 18.6189 10.7571 19.7037 11.27 21C11.7625 21.04 12.2575 21.04 12.75 21C13.2492 19.6896 14.1798 18.5883 15.3886 17.8775C16.5974 17.1668 18.0122 16.889 19.4 17.09ZM9.22215 7.84265C10.0444 7.29324 11.0111 7 12 7C13.3261 7 14.5979 7.52678 15.5355 8.46447C16.4732 9.40215 17 10.6739 17 12C17 12.9889 16.7068 13.9556 16.1574 14.7779C15.6079 15.6001 14.827 16.241 13.9134 16.6194C12.9998 16.9978 11.9945 17.0969 11.0246 16.9039C10.0546 16.711 9.16373 16.2348 8.46447 15.5355C7.76521 14.8363 7.289 13.9454 7.09608 12.9755C6.90315 12.0055 7.00217 11.0002 7.3806 10.0866C7.75904 9.17295 8.39991 8.39206 9.22215 7.84265ZM10.3333 14.4944C10.8266 14.8241 11.4067 15 12 15C12.7957 15 13.5587 14.6839 14.1213 14.1213C14.6839 13.5587 15 12.7956 15 12C15 11.4067 14.8241 10.8266 14.4944 10.3333C14.1648 9.83994 13.6962 9.45542 13.1481 9.22836C12.5999 9.0013 11.9967 8.94189 11.4147 9.05764C10.8328 9.1734 10.2982 9.45912 9.87868 9.87868C9.45912 10.2982 9.1734 10.8328 9.05765 11.4147C8.94189 11.9967 9.0013 12.5999 9.22836 13.1481C9.45543 13.6962 9.83994 14.1648 10.3333 14.4944Z" fill="black"/>
</mask>
<g mask="url(#mask0_6392_6257)">
<rect width="24" height="24" fill="black"/>
</g>
</svg>
