<svg width="24" height="24" viewBox="0 0 24 24" fill="none" xmlns="http://www.w3.org/2000/svg">
<g clip-path="url(#clip0_6392_6230)">
<mask id="mask0_6392_6230" style="mask-type:alpha" maskUnits="userSpaceOnUse" x="0" y="2" width="24" height="20">
<path fill-rule="evenodd" clip-rule="evenodd" d="M8 13C8.59334 13 9.17336 12.8241 9.66671 12.4944C10.1601 12.1648 10.5446 11.6962 10.7716 11.1481C10.9987 10.5999 11.0581 9.99667 10.9424 9.41473C10.8266 8.83279 10.5409 8.29824 10.1213 7.87868C9.70176 7.45912 9.16721 7.1734 8.58527 7.05765C8.00333 6.94189 7.40013 7.0013 6.85195 7.22836C6.30377 7.45543 5.83524 7.83994 5.50559 8.33329C5.17595 8.82664 5 9.40666 5 10C5 10.7957 5.31607 11.5587 5.87868 12.1213C6.44129 12.6839 7.20435 13 8 13ZM8 9C8.19778 9 8.39112 9.05865 8.55557 9.16853C8.72002 9.27841 8.84819 9.43459 8.92388 9.61732C8.99957 9.80004 9.01937 10.0011 8.98079 10.1951C8.9422 10.3891 8.84696 10.5673 8.70711 10.7071C8.56725 10.847 8.38907 10.9422 8.19509 10.9808C8.00111 11.0194 7.80004 10.9996 7.61732 10.9239C7.43459 10.8482 7.27841 10.72 7.16853 10.5556C7.05865 10.3911 7 10.1978 7 10C7 9.73479 7.10536 9.48043 7.29289 9.29289C7.48043 9.10536 7.73478 9 8 9Z" fill="black"/>
<path d="M4.87868 14.8787C5.44129 14.3161 6.20435 14 7 14H9C9.79565 14 10.5587 14.3161 11.1213 14.8787C11.6839 15.4413 12 16.2043 12 17C12 17.2652 11.8946 17.5196 11.7071 17.7071C11.5196 17.8946 11.2652 18 11 18C10.7348 18 10.4804 17.8946 10.2929 17.7071C10.1054 17.5196 10 17.2652 10 17C10 16.7348 9.89464 16.4804 9.70711 16.2929C9.51957 16.1054 9.26522 16 9 16H7C6.73478 16 6.48043 16.1054 6.29289 16.2929C6.10536 16.4804 6 16.7348 6 17C6 17.2652 5.89464 17.5196 5.70711 17.7071C5.51957 17.8946 5.26522 18 5 18C4.73478 18 4.48043 17.8946 4.29289 17.7071C4.10536 17.5196 4 17.2652 4 17C4 16.2043 4.31607 15.4413 4.87868 14.8787Z" fill="black"/>
<path d="M19 16H14C13.7348 16 13.4804 16.1054 13.2929 16.2929C13.1054 16.4804 13 16.7348 13 17C13 17.2652 13.1054 17.5196 13.2929 17.7071C13.4804 17.8946 13.7348 18 14 18H19C19.2652 18 19.5196 17.8946 19.7071 17.7071C19.8946 17.5196 20 17.2652 20 17C20 16.7348 19.8946 16.4804 19.7071 16.2929C19.5196 16.1054 19.2652 16 19 16Z" fill="black"/>
<path d="M14 13H19C19.2652 13 19.5196 13.1054 19.7071 13.2929C19.8946 13.4804 20 13.7348 20 14C20 14.2652 19.8946 14.5196 19.7071 14.7071C19.5196 14.8946 19.2652 15 19 15H14C13.7348 15 13.4804 14.8946 13.2929 14.7071C13.1054 14.5196 13 14.2652 13 14C13 13.7348 13.1054 13.4804 13.2929 13.2929C13.4804 13.1054 13.7348 13 14 13Z" fill="black"/>
<path d="M19 10H14C13.7348 10 13.4804 10.1054 13.2929 10.2929C13.1054 10.4804 13 10.7348 13 11C13 11.2652 13.1054 11.5196 13.2929 11.7071C13.4804 11.8946 13.7348 12 14 12H19C19.2652 12 19.5196 11.8946 19.7071 11.7071C19.8946 11.5196 20 11.2652 20 11C20 10.7348 19.8946 10.4804 19.7071 10.2929C19.5196 10.1054 19.2652 10 19 10Z" fill="black"/>
<path d="M16 9H14C13.7348 9 13.4804 8.89464 13.2929 8.70711C13.1054 8.51957 13 8.26522 13 8C13 7.73478 13.1054 7.48043 13.2929 7.29289C13.4804 7.10536 13.7348 7 14 7H16C16.2652 7 16.5196 7.10536 16.7071 7.29289C16.8946 7.48043 17 7.73478 17 8C17 8.26522 16.8946 8.51957 16.7071 8.70711C16.5196 8.89464 16.2652 9 16 9Z" fill="black"/>
<path fill-rule="evenodd" clip-rule="evenodd" d="M21 2H3C2.20435 2 1.44129 2.31607 0.87868 2.87868C0.31607 3.44129 0 4.20435 0 5V19C0 19.7956 0.31607 20.5587 0.87868 21.1213C1.44129 21.6839 2.20435 22 3 22H21C21.7956 22 22.5587 21.6839 23.1213 21.1213C23.6839 20.5587 24 19.7956 24 19V5C24 4.20435 23.6839 3.44129 23.1213 2.87868C22.5587 2.31607 21.7956 2 21 2ZM22 19C22 19.2652 21.8946 19.5196 21.7071 19.7071C21.5196 19.8946 21.2652 20 21 20H3C2.73478 20 2.48043 19.8946 2.29289 19.7071C2.10536 19.5196 2 19.2652 2 19V5C2 4.73478 2.10536 4.48043 2.29289 4.29289C2.48043 4.10536 2.73478 4 3 4H21C21.2652 4 21.5196 4.10536 21.7071 4.29289C21.8946 4.48043 22 4.73478 22 5V19Z" fill="black"/>
</mask>
<g mask="url(#mask0_6392_6230)">
<rect width="24" height="24" fill="black"/>
</g>
</g>
<defs>
<clipPath id="clip0_6392_6230">
<rect width="24" height="24" fill="white"/>
</clipPath>
</defs>
</svg>
