<svg width="24" height="24" viewBox="0 0 24 24" fill="none" xmlns="http://www.w3.org/2000/svg">
<g clip-path="url(#clip0_6392_3717)">
<mask id="mask0_6392_3717" style="mask-type:alpha" maskUnits="userSpaceOnUse" x="-1" y="0" width="26" height="24">
<path d="M8.38664 11.4685L7.89048 11.4478V11.4278V11.3558C7.63061 10.6259 7.49464 9.85687 7.49049 9.08051L7.49047 9.07753C7.49263 5.51849 10.1633 2.52782 13.6999 2.12605L8.38664 11.4685ZM8.38664 11.4685L8.3435 11.9256C8.94935 11.9828 9.54415 12.1321 10.1047 12.3679C10.1053 12.3682 10.1059 12.3684 10.1065 12.3687L12.103 13.2272L13.29 13.7376L13.6106 13.9779C14.1039 14.3477 14.4235 14.9038 14.4938 15.5149L14.5506 16.0098L15.0457 15.9548L16.5757 15.7848L16.6432 15.7773L16.7062 15.7521C16.7701 15.7265 16.8186 15.6941 16.849 15.6714C20.1903 14.4762 22.1101 10.9677 21.3117 7.50645L21.3116 7.50624C20.5105 4.03988 17.2358 1.72332 13.7001 2.12603L8.38664 11.4685ZM13.0899 13.0778H13.9105H14.64C15.5124 13.077 16.2695 12.4766 16.4676 11.6281L16.4678 11.6272C16.6676 10.7791 16.2578 9.90473 15.4772 9.51523L15.4758 9.51453L13.9499 8.7471C13.7384 8.64566 13.5792 8.46515 13.5022 8.24776L13.5006 8.24338L13.5006 8.24337C13.4249 8.02316 13.4389 7.78231 13.5394 7.57211L13.5433 7.56403L13.5474 7.55609C13.7006 7.2632 14.0059 7.07479 14.3432 7.07784M13.0899 13.0778L14.3405 7.57784M13.0899 13.0778L12.7225 12.4997C12.5899 12.2911 12.6295 12.0163 12.8149 11.8539M13.0899 13.0778L13.4588 11.8432M14.3432 7.07784C14.3446 7.07785 14.3459 7.07786 14.3473 7.07788L14.3405 7.57784M14.3432 7.07784H14.3405V7.57784M14.3432 7.07784H14.9195C15.1455 7.07784 15.3608 7.16378 15.5237 7.31483M14.3405 7.57784H14.9195C15.0215 7.57784 15.1185 7.61784 15.1905 7.68784M15.5237 7.31483C15.5212 7.31274 15.5187 7.31062 15.5162 7.30848L15.1905 7.68784M15.5237 7.31483C15.7209 7.4775 16.0114 7.46434 16.1934 7.28176L16.1939 7.28128C16.3749 7.1003 16.3897 6.81351 16.2312 6.61577M15.5237 7.31483C15.5289 7.3196 15.534 7.32444 15.539 7.32934L15.1905 7.68784M15.1905 7.68784L16.2312 6.61577M14.6405 13.5778C14.6446 13.5778 14.6487 13.5778 14.6527 13.5778C14.6487 13.5734 14.6446 13.5689 14.6405 13.5645V13.5778ZM14.6405 13.5778L14.6405 13.5645C14.5098 13.424 14.3661 13.2945 14.2104 13.1778L13.9105 13.5778M14.6405 13.5778H13.9105M13.9105 13.5778V14.0778H14.4222C14.2755 13.8912 14.1039 13.7228 13.9105 13.5778ZM16.2312 6.61577C16.2357 6.62015 16.2402 6.62458 16.2446 6.62907L16.6005 6.27784L16.2207 6.60307C16.2243 6.60726 16.2278 6.6115 16.2312 6.61577ZM16.2312 6.61577C16.0381 6.42765 15.7834 6.33842 15.3782 6.24507L14.9905 6.15573V5.75784C14.9905 5.51158 14.7735 5.28064 14.467 5.28064C14.1916 5.28064 13.9905 5.48155 13.9905 5.75784V6.10438L13.666 6.22602C12.9694 6.48716 12.4953 7.13592 12.4599 7.87769L12.4599 7.87822C12.4236 8.62058 12.8326 9.31237 13.5 9.63862L13.5053 9.64118L13.5053 9.64121L15.0341 10.4106L14.8105 10.8578M16.2312 6.61577L13.2805 10.0878L14.8105 10.8578M14.8105 10.8578L15.0353 10.4112L15.035 10.4111M14.8105 10.8578C14.9005 10.9028 14.9685 10.9818 15.0005 11.0778M15.035 10.4111L14.9805 11.3678C15.0255 11.2778 15.0335 11.1738 15.0005 11.0778M15.035 10.4111C15.2441 10.5159 15.4005 10.6987 15.4741 10.9175M15.035 10.4111L13.4588 11.8432M15.0005 11.0778L15.4748 10.9197C15.4746 10.919 15.4743 10.9182 15.4741 10.9175M15.0005 11.0778L15.4733 10.9153C15.4736 10.916 15.4738 10.9168 15.4741 10.9175M15.4741 10.9175C15.5509 11.143 15.5309 11.3851 15.4277 11.5914L15.4228 11.6012L15.4227 11.6011C15.2724 11.886 14.9788 12.0732 14.6474 12.0778L14.6405 12.0779V12.0778H14.0605C13.8343 12.0778 13.6207 11.9912 13.4588 11.8432M13.4588 11.8432C13.4614 11.8452 13.464 11.8474 13.4665 11.8495L13.7895 11.4678M13.4588 11.8432L14.0605 11.5778C13.9595 11.5778 13.8625 11.5378 13.7895 11.4678M13.4588 11.8432C13.2709 11.6904 12.9995 11.694 12.8149 11.8539M13.4588 11.8432C13.4536 11.8384 13.4485 11.8336 13.4434 11.8287L13.7895 11.4678M13.4588 11.8432L13.7895 11.4678M12.8149 11.8539C12.8151 11.8537 12.8153 11.8535 12.8154 11.8534L12.4865 11.4768L12.8144 11.8543C12.8145 11.8542 12.8147 11.854 12.8149 11.8539ZM22.7788 15.822L22.9208 15.9478H22.9272C23.3967 16.4482 23.6017 17.1457 23.4705 17.8262C23.3277 18.567 22.8068 19.1794 22.0992 19.4381C22.0991 19.4381 22.099 19.4382 22.0989 19.4382L13.2297 22.6679C12.7396 22.846 12.2221 22.9369 11.6996 22.9378L11.6945 22.9379C11.3963 22.9414 11.0982 22.9113 10.8045 22.8488L10.8045 22.8487L10.7984 22.8475L1.98843 21.0875L1.93993 21.0778H1.89048H0.990479C0.714621 21.0778 0.490479 20.8537 0.490479 20.5778C0.490479 20.302 0.714621 20.0778 0.990479 20.0778H2.13743L10.9856 21.9767L10.9856 21.9767L10.9919 21.978C11.619 22.1041 12.2687 22.055 12.87 21.8382L12.8713 21.8378L21.7313 18.6178L21.7343 18.6167C22.1898 18.4478 22.4922 18.012 22.4905 17.526L22.4904 17.5224C22.4869 17.1986 22.3478 16.89 22.1036 16.6742C21.8624 16.4609 21.5421 16.3552 21.2162 16.3908L21.2152 16.3909L14.2952 17.1609L14.0934 17.1833L13.9644 17.3401C13.5347 17.8621 12.8914 18.1625 12.2139 18.1579C12.0265 18.1562 11.8406 18.1348 11.6604 18.0926L7.87704 17.0944L7.87707 17.0943L7.86689 17.0918C7.6844 17.0477 7.53739 16.909 7.48298 16.7281C7.43033 16.5465 7.47761 16.3507 7.60742 16.2137L7.60745 16.2137C7.73534 16.0787 7.92613 16.0208 8.10876 16.0628L11.862 17.061L11.8701 17.0632L11.8783 17.0651C12.266 17.1543 12.6707 17.0616 12.9806 16.8179L12.9808 16.8176C13.2909 16.5734 13.4735 16.2041 13.4803 15.8109C13.4986 15.2846 13.1966 14.7989 12.7161 14.5821L12.7161 14.582L12.708 14.5785L9.70799 13.2885L9.70714 13.2881C8.06832 12.5871 6.17943 12.8114 4.75143 13.8771L4.75014 13.8781C3.71467 14.6561 2.45494 15.0769 1.16012 15.0778H0.990479C0.714621 15.0778 0.490479 14.8537 0.490479 14.5778C0.490479 14.302 0.714621 14.0778 0.990479 14.0778L1.16048 14.0778L1.16151 14.0778C2.23739 14.0756 3.28484 13.7268 4.14668 13.0807C4.83738 12.5835 5.62546 12.2382 6.46051 12.0677L6.99827 11.9579L6.83895 11.4327C6.60732 10.6691 6.49048 9.876 6.49048 9.07784L6.49048 9.07639C6.48012 5.50016 8.84701 2.3531 12.2849 1.37059L12.285 1.37055C15.7227 0.387135 19.3958 1.80909 21.2762 4.85075L21.2762 4.85084C23.1575 7.89247 22.7876 11.814 20.3719 14.45L19.604 15.2878H20.7405H21.0505H21.0768L21.103 15.2851C21.7115 15.2208 22.32 15.4152 22.7788 15.822Z" stroke="black" stroke-linecap="round"/>
</mask>
<g mask="url(#mask0_6392_3717)">
<rect width="24" height="24" fill="black"/>
</g>
</g>
<defs>
<clipPath id="clip0_6392_3717">
<rect width="24" height="24" fill="white"/>
</clipPath>
</defs>
</svg>
