<svg width="24" height="24" viewBox="0 0 24 24" fill="none" xmlns="http://www.w3.org/2000/svg">
<mask id="mask0_6392_3692" style="mask-type:alpha" maskUnits="userSpaceOnUse" x="1" y="1" width="22" height="23">
<path d="M2.70711 10.7071C2.51957 10.8947 2.26522 11 2 11C1.73478 11 1.48043 10.8947 1.29289 10.7071C1.10536 10.5196 1 10.2652 1 10V8.00001C1 7.20436 1.31607 6.4413 1.87868 5.87869C2.44129 5.31608 3.20435 5.00001 4 5.00001H19.58L17.29 2.71001C17.1038 2.52265 16.9992 2.2692 16.9992 2.00501C16.9992 1.74082 17.1038 1.48737 17.29 1.30001C17.383 1.20628 17.4936 1.13189 17.6154 1.08112C17.7373 1.03035 17.868 1.00421 18 1.00421C18.132 1.00421 18.2627 1.03035 18.3846 1.08112C18.5064 1.13189 18.617 1.20628 18.71 1.30001L22.71 5.30001C22.8947 5.48627 22.9989 5.73767 23 6.00001C23.0008 6.13162 22.9755 6.26208 22.9258 6.38392C22.876 6.50575 22.8027 6.61657 22.71 6.71001L18.71 10.71C18.617 10.8037 18.5064 10.8781 18.3846 10.9289C18.2627 10.9797 18.132 11.0058 18 11.0058C17.868 11.0058 17.7373 10.9797 17.6154 10.9289C17.4936 10.8781 17.383 10.8037 17.29 10.71C17.1963 10.617 17.1219 10.5064 17.0711 10.3846C17.0203 10.2627 16.9942 10.132 16.9942 10C16.9942 9.868 17.0203 9.73729 17.0711 9.61543C17.1219 9.49357 17.1963 9.38297 17.29 9.29001L19.59 7.00001H4C3.73478 7.00001 3.48043 7.10537 3.29289 7.2929C3.10536 7.48044 3 7.73479 3 8.00001V10C3 10.2652 2.89464 10.5196 2.70711 10.7071Z" fill="black"/>
<path d="M21.2929 13.2929C21.4804 13.1054 21.7348 13 22 13C22.2652 13 22.5196 13.1054 22.7071 13.2929C22.8947 13.4804 23 13.7348 23 14V16C23 16.7957 22.6839 17.5587 22.1213 18.1213C21.5587 18.6839 20.7957 19 20 19H4.41002L6.71002 21.29C6.80375 21.383 6.87814 21.4936 6.92891 21.6154C6.97968 21.7373 7.00582 21.868 7.00582 22C7.00582 22.132 6.97968 22.2627 6.92891 22.3846C6.87814 22.5064 6.80375 22.617 6.71002 22.71C6.61705 22.8037 6.50645 22.8781 6.38459 22.9289C6.26273 22.9797 6.13203 23.0058 6.00002 23.0058C5.868 23.0058 5.7373 22.9797 5.61544 22.9289C5.49358 22.8781 5.38298 22.8037 5.29002 22.71L1.29002 18.71C1.19734 18.6166 1.12401 18.5057 1.07425 18.3839C1.02448 18.2621 0.999256 18.1316 1.00002 18C1.00112 17.7377 1.10527 17.4863 1.29002 17.3L5.29002 13.3C5.38298 13.2063 5.49358 13.1319 5.61544 13.0811C5.7373 13.0303 5.868 13.0042 6.00002 13.0042C6.13203 13.0042 6.26273 13.0303 6.38459 13.0811C6.50645 13.1319 6.61705 13.2063 6.71002 13.3C6.89627 13.4874 7.00081 13.7408 7.00081 14.005C7.00081 14.2692 6.89627 14.5226 6.71002 14.71L4.42002 17H20C20.2652 17 20.5196 16.8946 20.7071 16.7071C20.8947 16.5196 21 16.2652 21 16V14C21 13.7348 21.1054 13.4804 21.2929 13.2929Z" fill="black"/>
</mask>
<g mask="url(#mask0_6392_3692)">
<rect width="24" height="24" fill="black"/>
</g>
</svg>
