<svg width="16" height="16" viewBox="0 0 16 16" fill="none" xmlns="http://www.w3.org/2000/svg">
<path fill-rule="evenodd" clip-rule="evenodd" d="M0 8C0 3.58172 3.58172 0 8 0C10.1217 0 12.1566 0.842855 13.6569 2.34315C15.1571 3.84344 16 5.87827 16 8C16 12.4183 12.4183 16 8 16C3.58172 16 0 12.4183 0 8ZM10.4001 4.58186C10.6829 4.30466 11.1355 4.30466 11.4183 4.58186C11.6955 4.86465 11.6955 5.31725 11.4183 5.60004L9.01828 8.00004L11.4183 10.4C11.6955 10.6828 11.6955 11.1354 11.4183 11.4182C11.1355 11.6954 10.6829 11.6954 10.4001 11.4182L8.0001 9.01822L5.6001 11.4182C5.31731 11.6954 4.86471 11.6954 4.58192 11.4182C4.30472 11.1354 4.30472 10.6828 4.58192 10.4L6.98192 8.00004L4.58192 5.60004C4.36476 5.3105 4.39356 4.90534 4.64948 4.64942C4.9054 4.3935 5.31056 4.3647 5.6001 4.58186L8.0001 6.98186L10.4001 4.58186Z" fill="#CB2A2A"/>
</svg>
