<svg width="24" height="24" viewBox="0 0 24 24" fill="none" xmlns="http://www.w3.org/2000/svg">
<g clip-path="url(#clip0_6392_3678)">
<mask id="mask0_6392_3678" style="mask-type:alpha" maskUnits="userSpaceOnUse" x="2" y="-1" width="21" height="25">
<path d="M10 11H14C14.2652 11 14.5196 10.8946 14.7071 10.7071C14.8946 10.5196 15 10.2652 15 10C15 9.73478 14.8946 9.48043 14.7071 9.29289C14.5196 9.10536 14.2652 9 14 9H10C9.73478 9 9.48043 9.10536 9.29289 9.29289C9.10536 9.48043 9 9.73478 9 10C9 10.2652 9.10536 10.5196 9.29289 10.7071C9.48043 10.8946 9.73478 11 10 11Z" fill="black"/>
<path d="M10 17H13C13.2652 17 13.5196 17.1054 13.7071 17.2929C13.8946 17.4804 14 17.7348 14 18C14 18.2652 13.8946 18.5196 13.7071 18.7071C13.5196 18.8946 13.2652 19 13 19H10C9.73478 19 9.48043 18.8946 9.29289 18.7071C9.10536 18.5196 9 18.2652 9 18C9 17.7348 9.10536 17.4804 9.29289 17.2929C9.48043 17.1054 9.73478 17 10 17Z" fill="black"/>
<path d="M16 13H10C9.73478 13 9.48043 13.1054 9.29289 13.2929C9.10536 13.4804 9 13.7348 9 14C9 14.2652 9.10536 14.5196 9.29289 14.7071C9.48043 14.8946 9.73478 15 10 15H16C16.2652 15 16.5196 14.8946 16.7071 14.7071C16.8946 14.5196 17 14.2652 17 14C17 13.7348 16.8946 13.4804 16.7071 13.2929C16.5196 13.1054 16.2652 13 16 13Z" fill="black"/>
<path d="M8 10C8 10.5523 7.55228 11 7 11C6.44772 11 6 10.5523 6 10C6 9.44771 6.44772 9 7 9C7.55228 9 8 9.44771 8 10Z" fill="black"/>
<path d="M7 15C7.55228 15 8 14.5523 8 14C8 13.4477 7.55228 13 7 13C6.44772 13 6 13.4477 6 14C6 14.5523 6.44772 15 7 15Z" fill="black"/>
<path d="M8 18C8 18.5523 7.55228 19 7 19C6.44772 19 6 18.5523 6 18C6 17.4477 6.44772 17 7 17C7.55228 17 8 17.4477 8 18Z" fill="black"/>
<path fill-rule="evenodd" clip-rule="evenodd" d="M21 5.63999L20.67 5.35999L15.48 0.999986L15.21 0.719986C14.6536 0.24393 13.9422 -0.0121579 13.21 -1.43536e-05H5C4.20435 -1.43536e-05 3.44129 0.316056 2.87868 0.878665C2.31607 1.44127 2 2.20434 2 2.99999V21C2 21.7956 2.31607 22.5587 2.87868 23.1213C3.44129 23.6839 4.20435 24 5 24H19C19.7956 24 20.5587 23.6839 21.1213 23.1213C21.6839 22.5587 22 21.7956 22 21V7.91999C22.0062 7.49051 21.9202 7.0647 21.7477 6.67135C21.5752 6.278 21.3202 5.92629 21 5.63999ZM18.3 5.99999H15V3.16999L18.3 5.99999ZM19 22H5C4.73478 22 4.48043 21.8946 4.29289 21.7071C4.10536 21.5196 4 21.2652 4 21V2.99999C4 2.73477 4.10536 2.48042 4.29289 2.29288C4.48043 2.10534 4.73478 1.99999 5 1.99999H13V5.99999C13 6.53042 13.2107 7.03913 13.5858 7.4142C13.9609 7.78927 14.4696 7.99999 15 7.99999H19.65C19.7664 8.01021 19.8836 8.01021 20 7.99999V21C20 21.2652 19.8946 21.5196 19.7071 21.7071C19.5196 21.8946 19.2652 22 19 22Z" fill="black"/>
</mask>
<g mask="url(#mask0_6392_3678)">
<rect width="24" height="24" fill="black"/>
</g>
</g>
<defs>
<clipPath id="clip0_6392_3678">
<rect width="24" height="24" fill="white"/>
</clipPath>
</defs>
</svg>
