<svg width="24" height="24" viewBox="0 0 24 24" fill="none" xmlns="http://www.w3.org/2000/svg">
<mask id="mask0_6392_9555" style="mask-type:alpha" maskUnits="userSpaceOnUse" x="1" y="0" width="22" height="24">
<path d="M19.9403 3.51342H15.0003C15.0013 3.20867 14.9575 2.90543 14.8703 2.61342C14.6603 1.92318 14.2086 1.33173 13.598 0.947472C12.9873 0.563216 12.2587 0.411891 11.5455 0.521231C10.8324 0.630572 10.1825 0.993254 9.71506 1.54281C9.2476 2.09236 8.99384 2.79197 9.00029 3.51342H4.00029C3.73253 3.5133 3.46746 3.56695 3.22081 3.67119C2.97416 3.77543 2.75096 3.92814 2.56444 4.12026C2.37791 4.31238 2.23187 4.54 2.13496 4.78962C2.03806 5.03923 1.99226 5.30577 2.00029 5.57342V21.7834C1.99759 22.2361 2.17352 22.6717 2.4899 22.9956C2.80628 23.3194 3.23761 23.5055 3.69029 23.5134H19.9403C20.2148 23.5095 20.4858 23.4515 20.7378 23.3429C20.9899 23.2342 21.2181 23.077 21.4094 22.8801C21.6007 22.6832 21.7513 22.4506 21.8527 22.1955C21.9541 21.9404 22.0043 21.6679 22.0003 21.3934V5.63342C22.0043 5.35895 21.9541 5.08639 21.8527 4.8313C21.7513 4.57621 21.6007 4.34358 21.4094 4.14672C21.2181 3.94985 20.9899 3.7926 20.7378 3.68394C20.4858 3.57527 20.2148 3.51733 19.9403 3.51342ZM11.3503 2.75342C11.4619 2.65391 11.5944 2.58069 11.738 2.53915C11.8817 2.49762 12.0328 2.48883 12.1803 2.51342C12.3696 2.53957 12.5474 2.61939 12.6927 2.74345C12.838 2.8675 12.9448 3.03059 13.0003 3.21342C13.0455 3.34511 13.0608 3.48519 13.0453 3.62354C13.0297 3.76189 12.9836 3.89506 12.9103 4.01342C12.8225 4.16544 12.7763 4.33788 12.7763 4.51342C12.7763 4.68896 12.8225 4.8614 12.9103 5.01342C12.9975 5.16456 13.1228 5.29023 13.2737 5.37795C13.4246 5.46566 13.5958 5.51237 13.7703 5.51342H14.2603C14.5936 5.51458 14.9201 5.60881 15.2027 5.78549C15.4854 5.96217 15.7132 6.21428 15.8603 6.51342H8.19029C8.33742 6.21428 8.56515 5.96217 8.84784 5.78549C9.13053 5.60881 9.45694 5.51458 9.79029 5.51342H10.2803C10.4548 5.51237 10.626 5.46566 10.7769 5.37795C10.9277 5.29023 11.053 5.16456 11.1403 5.01342C11.2281 4.8614 11.2743 4.68896 11.2743 4.51342C11.2743 4.33788 11.2281 4.16544 11.1403 4.01342C11.0504 3.86199 11.0021 3.68951 11.0003 3.51342C11.0003 3.36898 11.0316 3.22625 11.092 3.09505C11.1524 2.96386 11.2405 2.84731 11.3503 2.75342ZM20.0003 21.3934C20.0021 21.417 19.9975 21.4406 19.987 21.4617C19.9764 21.4829 19.9603 21.5007 19.9403 21.5134H4.00029V5.51342H6.46029C6.16006 6.05515 6.00182 6.66406 6.00029 7.28342C6.00029 7.60964 6.12988 7.92249 6.36055 8.15316C6.59122 8.38383 6.90408 8.51342 7.23029 8.51342H16.7703C16.9343 8.51407 17.0968 8.48164 17.248 8.41807C17.3992 8.35449 17.536 8.26108 17.6503 8.14342C17.7633 8.03085 17.8525 7.8967 17.9126 7.74896C17.9727 7.60123 18.0026 7.44291 18.0003 7.28342C17.9988 6.66406 17.8405 6.05515 17.5403 5.51342H19.9403C19.9603 5.52608 19.9764 5.54394 19.987 5.56508C19.9975 5.58623 20.0021 5.60985 20.0003 5.63342V21.3934Z" fill="#0078AD"/>
<path d="M12.0003 10.9234C11.3789 10.5437 10.649 10.3809 9.92517 10.4605C9.2013 10.5402 8.5243 10.8577 8.00028 11.3634C7.69763 11.662 7.45731 12.0178 7.29329 12.41C7.12927 12.8023 7.0448 13.2232 7.0448 13.6484C7.0448 14.0736 7.12927 14.4945 7.29329 14.8868C7.45731 15.279 7.69763 15.6348 8.00028 15.9334L11.3203 19.2234C11.5016 19.4034 11.7449 19.5071 12.0003 19.5134C12.2626 19.5123 12.514 19.4081 12.7003 19.2234L16.0003 15.9134C16.3041 15.6155 16.5455 15.2599 16.7103 14.8676C16.8751 14.4752 16.96 14.054 16.96 13.6284C16.96 13.2028 16.8751 12.7816 16.7103 12.3892C16.5455 11.9969 16.3041 11.6413 16.0003 11.3434C15.4765 10.8362 14.7979 10.5192 14.0728 10.443C13.3477 10.3669 12.6179 10.536 12.0003 10.9234ZM14.6403 14.5134L12.0003 17.1034L9.36028 14.5134C9.24629 14.4 9.15584 14.2652 9.09412 14.1168C9.03239 13.9684 9.00062 13.8092 9.00062 13.6484C9.00062 13.4876 9.03239 13.3285 9.09412 13.18C9.15584 13.0316 9.24629 12.8968 9.36028 12.7834C9.599 12.5525 9.91814 12.4234 10.2503 12.4234C10.5828 12.4213 10.9027 12.5507 11.1403 12.7834L11.2903 12.9234C11.4776 13.1097 11.7311 13.2142 11.9953 13.2142C12.2595 13.2142 12.5129 13.1097 12.7003 12.9234L12.8603 12.7534C13.0978 12.5201 13.4174 12.3894 13.7503 12.3894C14.0832 12.3894 14.4028 12.5201 14.6403 12.7534C14.7537 12.8651 14.8437 12.9982 14.9052 13.1449C14.9666 13.2917 14.9983 13.4493 14.9983 13.6084C14.9983 13.7675 14.9666 13.9251 14.9052 14.0719C14.8437 14.2187 14.7537 14.3517 14.6403 14.4634V14.5134Z" fill="#0078AD"/>
</mask>
<g mask="url(#mask0_6392_9555)">
<rect width="24" height="24" fill="black"/>
</g>
</svg>
