<svg width="24" height="24" viewBox="0 0 24 24" fill="none" xmlns="http://www.w3.org/2000/svg">
<mask id="mask0_6392_6270" style="mask-type:alpha" maskUnits="userSpaceOnUse" x="1" y="1" width="22" height="22">
<path fill-rule="evenodd" clip-rule="evenodd" d="M12 1C18.0751 1 23 5.92487 23 12C23 18.0751 18.0751 23 12 23C5.92487 23 1 18.0751 1 12C1 5.92487 5.92487 1 12 1ZM12 3C7.02944 3 3 7.02944 3 12C3 16.9706 7.02944 21 12 21C16.9706 21 21 16.9706 21 12C21 7.02944 16.9706 3 12 3ZM12 17C12.553 17 13 17.447 13 18C13 18.553 12.553 19 12 19C11.447 19 11 18.553 11 18C11 17.447 11.447 17 12 17ZM12 5C14.205 5 16 6.794 16 9C16 10.86 14.723 12.429 13 12.873V15C13 15.553 12.552 16 12 16C11.447 16 11 15.553 11 15V12C11 11.4865 11.3854 11.0644 11.8832 11.0067L12 11C13.103 11 14 10.103 14 9C14 7.897 13.103 7 12 7C10.896 7 10 7.897 10 9C10 9.553 9.552 10 9 10C8.447 10 8 9.553 8 9C8 6.794 9.794 5 12 5Z" fill="#333333"/>
</mask>
<g mask="url(#mask0_6392_6270)">
<rect width="24" height="24" fill="black"/>
</g>
</svg>
