<svg width="24" height="24" viewBox="0 0 24 24" fill="none" xmlns="http://www.w3.org/2000/svg">
<g clip-path="url(#clip0_6392_9979)">
<mask id="mask0_6392_9979" style="mask-type:alpha" maskUnits="userSpaceOnUse" x="0" y="0" width="24" height="24">
<path d="M22.44 5.55001L13.44 0.640015C12.9985 0.398438 12.5033 0.27182 12 0.27182C11.4967 0.27182 11.0015 0.398438 10.56 0.640015L1.56001 5.55001C1.08657 5.80906 0.69177 6.19102 0.41722 6.65564C0.142671 7.12026 -0.00146186 7.65034 1.11785e-05 8.19001V9.63001C0.000101981 10.1506 0.135681 10.6623 0.393419 11.1146C0.651156 11.567 1.02218 11.9445 1.47001 12.21C1.63837 12.3046 1.81596 12.3816 2.00001 12.44V21C2.00001 21.7957 2.31608 22.5587 2.87869 23.1213C3.4413 23.6839 4.20436 24 5.00001 24H19C19.7957 24 20.5587 23.6839 21.1213 23.1213C21.6839 22.5587 22 21.7957 22 21V12.44C22.181 12.3736 22.3579 12.2968 22.53 12.21C22.9778 11.9445 23.3489 11.567 23.6066 11.1146C23.8643 10.6623 23.9999 10.1506 24 9.63001V8.19001C24.0015 7.65034 23.8574 7.12026 23.5828 6.65564C23.3083 6.19102 22.9135 5.80906 22.44 5.55001ZM10 22V16C10 15.7348 10.1054 15.4804 10.2929 15.2929C10.4804 15.1054 10.7348 15 11 15H13C13.2652 15 13.5196 15.1054 13.7071 15.2929C13.8947 15.4804 14 15.7348 14 16V22H10ZM19 22H16V16C16 15.2044 15.6839 14.4413 15.1213 13.8787C14.5587 13.3161 13.7957 13 13 13H11C10.2044 13 9.4413 13.3161 8.87869 13.8787C8.31608 14.4413 8.00001 15.2044 8.00001 16V22H5.00001C4.73479 22 4.48044 21.8947 4.2929 21.7071C4.10537 21.5196 4.00001 21.2652 4.00001 21V12.43C4.1505 12.3838 4.29753 12.327 4.44001 12.26L11.52 8.40001C11.672 8.31225 11.8445 8.26604 12.02 8.26604C12.1955 8.26604 12.368 8.31225 12.52 8.40001L19.6 12.26C19.7423 12.3303 19.8893 12.3904 20.04 12.44L20 21C20 21.2652 19.8947 21.5196 19.7071 21.7071C19.5196 21.8947 19.2652 22 19 22ZM22 9.63001C22 9.80356 21.9548 9.9741 21.8689 10.1249C21.783 10.2757 21.6593 10.4015 21.51 10.49C21.358 10.5778 21.1855 10.624 21.01 10.624C20.8345 10.624 20.662 10.5778 20.51 10.49L13.44 6.64001C12.9968 6.40365 12.5023 6.28001 12 6.28001C11.4977 6.28001 11.0032 6.40365 10.56 6.64001L3.48001 10.51C3.32752 10.5935 3.15592 10.6357 2.98212 10.6326C2.80832 10.6295 2.63834 10.5811 2.48893 10.4923C2.33952 10.4034 2.21585 10.2772 2.13012 10.126C2.04438 9.97478 1.99954 9.80384 2.00001 9.63001V8.19001C1.99952 8.01012 2.04756 7.83343 2.13908 7.67856C2.2306 7.52368 2.3622 7.39636 2.52001 7.31001L11.52 2.40001C11.672 2.31225 11.8445 2.26604 12.02 2.26604C12.1955 2.26604 12.368 2.31225 12.52 2.40001L21.52 7.31001C21.6778 7.39636 21.8094 7.52368 21.9009 7.67856C21.9925 7.83343 22.0405 8.01012 22.04 8.19001L22 9.63001Z" fill="black"/>
</mask>
<g mask="url(#mask0_6392_9979)">
<rect width="24" height="24" fill="black"/>
</g>
</g>
<defs>
<clipPath id="clip0_6392_9979">
<rect width="24" height="24" fill="white"/>
</clipPath>
</defs>
</svg>
