<svg width="32" height="32" viewBox="0 0 32 32" fill="none" xmlns="http://www.w3.org/2000/svg">
<rect width="32" height="32" rx="2" fill="white"/>
<mask id="mask0_6498_9258" style="mask-type:alpha" maskUnits="userSpaceOnUse" x="9" y="14" width="14" height="4">
<path fill-rule="evenodd" clip-rule="evenodd" d="M12.5 16C12.5 16.8284 11.8284 17.5 11 17.5C10.1716 17.5 9.5 16.8284 9.5 16C9.5 15.1716 10.1716 14.5 11 14.5C11.8284 14.5 12.5 15.1716 12.5 16ZM22.5 16C22.5 16.8284 21.8284 17.5 21 17.5C20.1716 17.5 19.5 16.8284 19.5 16C19.5 15.1716 20.1716 14.5 21 14.5C21.8284 14.5 22.5 15.1716 22.5 16ZM16 17.5C16.8284 17.5 17.5 16.8284 17.5 16C17.5 15.1716 16.8284 14.5 16 14.5C15.1716 14.5 14.5 15.1716 14.5 16C14.5 16.8284 15.1716 17.5 16 17.5Z" fill="black"/>
</mask>
<g mask="url(#mask0_6498_9258)">
<rect x="4" y="4" width="24" height="24" fill="#1082BE"/>
</g>
</svg>
