<svg width="24" height="24" viewBox="0 0 24 24" fill="none" xmlns="http://www.w3.org/2000/svg">
<g clip-path="url(#clip0_6392_3705)">
<mask id="mask0_6392_3705" style="mask-type:alpha" maskUnits="userSpaceOnUse" x="0" y="1" width="24" height="21">
<path d="M2.63999 12.77C2.46008 12.9191 2.23364 13.0005 1.99999 13C1.85308 13.0002 1.70792 12.9681 1.57484 12.9059C1.44175 12.8437 1.32401 12.7529 1.22999 12.64C1.14579 12.539 1.08235 12.4223 1.0433 12.2967C1.00426 12.1711 0.990378 12.039 1.00245 11.908C1.01453 11.7771 1.05233 11.6497 1.11368 11.5334C1.17503 11.417 1.25873 11.3139 1.35999 11.23L7.35999 6.23C7.51024 6.106 7.69344 6.02859 7.88708 6.00727C8.08072 5.98595 8.27636 6.02166 8.44999 6.11L11.85 7.81L17.46 3H16C15.7348 3 15.4804 2.89464 15.2929 2.70711C15.1053 2.51957 15 2.26522 15 2C15 1.73478 15.1053 1.48043 15.2929 1.29289C15.4804 1.10536 15.7348 1 16 1H20C20.2652 1 20.5196 1.10536 20.7071 1.29289C20.8946 1.48043 21 1.73478 21 2V6C21 6.26522 20.8946 6.51957 20.7071 6.70711C20.5196 6.89464 20.2652 7 20 7C19.7348 7 19.4804 6.89464 19.2929 6.70711C19.1053 6.51957 19 6.26522 19 6V4.32L12.65 9.76C12.4998 9.88765 12.3153 9.96808 12.1196 9.99121C11.9239 10.0143 11.7258 9.97913 11.55 9.89L8.13999 8.19L2.63999 12.77Z" fill="black"/>
<path fill-rule="evenodd" clip-rule="evenodd" d="M22 20H23C23.2652 20 23.5196 20.1054 23.7071 20.2929C23.8946 20.4804 24 20.7348 24 21C24 21.2652 23.8946 21.5196 23.7071 21.7071C23.5196 21.8946 23.2652 22 23 22H1C0.734784 22 0.48043 21.8946 0.292893 21.7071C0.105357 21.5196 0 21.2652 0 21C0 20.7348 0.105357 20.4804 0.292893 20.2929C0.48043 20.1054 0.734784 20 1 20H2V17C2 16.4696 2.21071 15.9609 2.58579 15.5858C2.96086 15.2107 3.46957 15 4 15H6C6.53043 15 7.03914 15.2107 7.41421 15.5858C7.78929 15.9609 8 16.4696 8 17V20H9V14C9 13.4696 9.21071 12.9609 9.58579 12.5858C9.96086 12.2107 10.4696 12 11 12H13C13.5304 12 14.0391 12.2107 14.4142 12.5858C14.7893 12.9609 15 13.4696 15 14V20H16V11C16 10.4696 16.2107 9.96086 16.5858 9.58579C16.9609 9.21071 17.4696 9 18 9H20C20.5304 9 21.0391 9.21071 21.4142 9.58579C21.7893 9.96086 22 10.4696 22 11V20ZM4 17V20H6V17H4ZM13 14H11V20H13V14ZM18 11V20H20V11H18Z" fill="black"/>
</mask>
<g mask="url(#mask0_6392_3705)">
<rect width="24" height="24" fill="black"/>
</g>
</g>
<defs>
<clipPath id="clip0_6392_3705">
<rect width="24" height="24" fill="white"/>
</clipPath>
</defs>
</svg>
