<svg width="129" height="44" viewBox="0 0 129 44" fill="none" xmlns="http://www.w3.org/2000/svg">
<path d="M27 33C33.0751 26.9249 33.0751 17.0751 27 11C20.9249 4.92487 11.0751 4.92487 5 11C-1.07513 17.0751 -1.07513 26.9249 5 33C11.0751 39.0751 20.9249 39.0751 27 33Z" fill="black"/>
<path d="M26.3128 32.3128C32.0085 26.6172 32.0085 17.3828 26.3128 11.6872C20.6172 5.99157 11.3828 5.99157 5.68721 11.6872C-0.00840463 17.3828 -0.00840497 26.6172 5.68721 32.3128C11.3828 38.0084 20.6172 38.0084 26.3128 32.3128Z" fill="black"/>
<path d="M16.0005 32.8671C23.1184 32.8671 28.8885 27.0544 28.8885 19.8841C28.8885 12.7138 23.1184 6.90106 16.0005 6.90106C8.88261 6.90106 3.11243 12.7138 3.11243 19.8841C3.11243 27.0544 8.88261 32.8671 16.0005 32.8671Z" fill="#DCE35F"/>
<path d="M16.0011 33.1999C8.62968 33.1999 2.62842 27.1566 2.62842 19.7282C2.62842 12.2998 8.62727 6.25571 16.0011 6.25571C23.3748 6.25571 29.3745 12.299 29.3745 19.7282C29.3745 27.1574 23.3756 33.1999 16.0011 33.1999ZM16.0011 7.23238C9.1617 7.23238 3.59791 12.8382 3.59791 19.7282C3.59791 26.6182 9.1617 32.2232 16.0011 32.2232C22.8404 32.2232 28.405 26.6174 28.405 19.7282C28.405 12.839 22.8404 7.23238 16.0011 7.23238Z" fill="black"/>
<path d="M13.8427 36.6067C19.7506 36.6067 24.54 31.7819 24.54 25.8301C24.54 19.8784 19.7506 15.0536 13.8427 15.0536C7.93482 15.0536 3.14551 19.8784 3.14551 25.8301C3.14551 31.7819 7.93482 36.6067 13.8427 36.6067Z" fill="#A6DBD9"/>
<path d="M13.8646 37.0986C13.0697 37.0989 12.2768 37.0148 11.4994 36.8475C8.59835 36.2223 6.06285 34.4613 4.45102 31.9523C2.83919 29.4432 2.28316 26.3917 2.90533 23.4695C4.20092 17.3947 10.1565 13.5138 16.185 14.8158C22.2135 16.1178 26.0683 22.1167 24.7791 28.1906C23.6747 33.3772 19.1302 37.0863 13.8646 37.0986ZM13.8398 15.5382C8.47836 15.5393 4.03043 19.7166 3.65378 25.1044C3.27712 30.4922 7.09997 35.2563 12.4083 36.0144C17.7167 36.7725 22.7033 33.2666 23.828 27.9856C24.4743 24.9469 23.7228 21.7767 21.7835 19.3598C19.8442 16.943 16.9247 15.5385 13.8398 15.5382Z" fill="black"/>
<path d="M23.1864 32.9711C26.8522 32.9711 29.8239 29.9775 29.8239 26.2848C29.8239 22.592 26.8522 19.5984 23.1864 19.5984C19.5206 19.5984 16.5488 22.592 16.5488 26.2848C16.5488 29.9775 19.5206 32.9711 23.1864 32.9711Z" fill="#F5DE3E"/>
<path d="M23.1862 33.4573C20.3052 33.4576 17.7078 31.7095 16.6053 29.0281C15.5028 26.3467 16.1124 23.2603 18.1498 21.2083C20.1872 19.1563 23.251 18.5429 25.9124 19.6542C28.5738 20.7655 30.3085 23.3825 30.3076 26.2848C30.3014 30.2441 27.1164 33.452 23.1862 33.4573ZM23.1862 20.0849C19.7881 20.0849 17.0335 22.86 17.0335 26.2832C17.0335 29.7064 19.7881 32.4814 23.1862 32.4814C26.5842 32.4814 29.3389 29.7064 29.3389 26.2832C29.3345 22.8621 26.5821 20.0901 23.1862 20.0865V20.0849Z" fill="black"/>
<path d="M42.6937 23.1017H40.4578L39.5501 27.5324H37L39.4798 15.5713H44.2826C46.2386 15.5713 47.5661 16.9846 47.5661 18.602C47.5661 21.8117 45.0863 23.1017 42.6937 23.1017ZM43.0079 17.3277H41.6453L40.8042 21.3445H41.6774C43.3887 21.3445 44.9609 20.952 44.9609 18.8517C44.9639 17.9024 44.0035 17.3277 43.0079 17.3277ZM56.0538 24.3399C55.7395 25.7924 55.6524 26.8524 55.6348 27.5324H53.1726C53.207 27.0832 53.3645 26.2408 53.5044 25.4124C52.8751 26.5784 51.8451 27.7263 50.1338 27.7263C48.3697 27.7263 47.4789 26.525 47.4789 24.8565C47.4789 20.8224 50.9895 18.3295 54.3249 18.3295C55.3381 18.3295 56.6479 18.5086 57.2589 18.7417L56.0538 24.3399ZM53.8707 20.0004C51.8627 20.0004 50.029 22.1886 50.029 24.5912C50.029 25.3983 50.3081 26.0618 51.2166 26.0618C52.44 26.0618 53.6092 24.3399 54.0978 22.1886L54.5696 20.1079C54.345 20.0286 54.1081 19.9921 53.8707 20.0004ZM65.7466 26.3303C64.9606 29.953 63.6683 31.6026 59.7915 31.6026C58.7589 31.6026 57.7331 31.4329 56.7527 31.1001L57.2245 29.3249C58.0656 29.7912 58.9534 29.9349 59.7387 29.9349C61.9218 29.9349 62.7606 28.7517 63.1621 27.066L63.4381 25.882C62.597 27.0299 61.7268 27.5308 60.277 27.5308C58.4785 27.5308 57.6053 26.3829 57.6053 24.8613C57.6053 20.8091 61.1992 18.3523 64.5561 18.3523C65.5165 18.3523 66.7216 18.5313 67.3853 18.7449L65.7466 26.3303ZM64.0353 20.0184C62.0266 20.0184 60.1585 22.1383 60.1585 24.6445C60.1585 25.4517 60.4376 26.0437 61.2933 26.0437C62.935 26.0437 63.8434 23.8916 64.2097 22.2954L64.7166 20.126C64.496 20.0554 64.2664 20.0192 64.0353 20.0184ZM75.0556 21.3453C76.3127 21.6319 77.1202 22.4571 77.1202 23.7126C77.1202 26.7967 74.2558 27.5324 71.844 27.5324H67.5283L70.0081 15.5713H74.6725C76.2271 15.5713 77.904 16.3062 77.904 18.0838C77.9024 19.8386 76.7493 21.0226 75.0556 21.3453ZM72.1912 22.1705H71.0909L70.3055 25.9393H71.5099C72.9773 25.9393 74.4967 25.4729 74.4967 23.6262C74.4967 22.3676 73.134 22.1705 72.1912 22.1705ZM73.5538 17.1675H72.101L71.4051 20.5892H72.6454C74.0073 20.5892 75.3347 20.0514 75.3347 18.4552C75.3347 17.4541 74.3567 17.1675 73.5538 17.1675ZM86.7396 24.3399C86.4246 25.7924 86.3374 26.8524 86.3198 27.5324H83.8546C83.8897 27.0832 84.0465 26.2408 84.1864 25.4124C83.5579 26.5784 82.5271 27.7263 80.8158 27.7263C79.0517 27.7263 78.1617 26.525 78.1617 24.8565C78.1617 20.8224 81.6715 18.3295 85.0077 18.3295C86.0201 18.3295 87.3299 18.5086 87.9417 18.7417L86.7396 24.3399ZM84.5565 20.0004C82.5478 20.0004 80.7141 22.1886 80.7141 24.5912C80.7141 25.3983 80.994 26.0618 81.9016 26.0618C83.1251 26.0618 84.2942 24.3399 84.7836 22.1886L85.2547 20.1079C85.0303 20.0286 84.7937 19.9921 84.5565 20.0004ZM97.2529 21.5785L96.0295 27.5324H93.62L94.7196 22.1148C94.79 21.7921 94.8596 21.4867 94.8596 21.1828C94.8596 20.5013 94.5453 20.0168 93.7072 20.0168C92.3973 20.0168 91.7688 21.2181 91.5241 22.3841L90.4589 27.5308H88.0311L89.4633 20.5366C89.6088 19.8737 89.7196 19.2033 89.7952 18.5282H92.0655L91.807 20.126C92.6482 18.9247 93.5183 18.3507 94.9681 18.3507C96.3828 18.3507 97.3608 19.0676 97.3608 20.5562C97.3575 20.8998 97.3214 21.2422 97.2529 21.5785Z" fill="white"/>
<path d="M103.575 22.6185L106.336 27.5326H103.575L101.2 22.8157L100.257 27.5326H97.8296L100.484 14.6025H102.895L101.34 22.2417L105.094 18.5297H107.941L103.575 22.6185Z" fill="white"/>
</svg>
