<svg width="24" height="24" viewBox="0 0 24 24" fill="none" xmlns="http://www.w3.org/2000/svg">
<mask id="mask0_6392_9528" style="mask-type:alpha" maskUnits="userSpaceOnUse" x="1" y="0" width="23" height="24">
<path d="M11 20H10V21H11V20Z" fill="black"/>
<path d="M10 18H11V19H10V18Z" fill="black"/>
<path d="M11 16H10V17H11V16Z" fill="black"/>
<path d="M12 20H13V21H12V20Z" fill="black"/>
<path d="M13 18H12V19H13V18Z" fill="black"/>
<path d="M12 16H13V17H12V16Z" fill="black"/>
<path d="M15 20H14V21H15V20Z" fill="black"/>
<path d="M14 18H15V19H14V18Z" fill="black"/>
<path d="M15 16H14V17H15V16Z" fill="black"/>
<path d="M16 16H18V17H16V16Z" fill="black"/>
<path d="M17 21C17.2652 21 17.5196 20.8946 17.7071 20.7071C17.8946 20.5196 18 20.2652 18 20V19C18 18.7348 17.8946 18.4804 17.7071 18.2929C17.5196 18.1054 17.2652 18 17 18C16.7348 18 16.4804 18.1054 16.2929 18.2929C16.1054 18.4804 16 18.7348 16 19V20C16 20.2652 16.1054 20.5196 16.2929 20.7071C16.4804 20.8946 16.7348 21 17 21Z" fill="black"/>
<path fill-rule="evenodd" clip-rule="evenodd" d="M10 0H18C18.7957 0 19.5587 0.31607 20.1213 0.87868C20.6839 1.44129 21 2.20435 21 3V21C21 21.7956 20.6839 22.5587 20.1213 23.1213C19.5587 23.6839 18.7957 24 18 24H10C9.20435 24 8.44129 23.6839 7.87868 23.1213C7.31607 22.5587 7 21.7956 7 21V3C7 2.20435 7.31607 1.44129 7.87868 0.87868C8.44129 0.31607 9.20435 0 10 0ZM18.7071 21.7071C18.8946 21.5196 19 21.2652 19 21V15H9V21C9 21.2652 9.10536 21.5196 9.29289 21.7071C9.48043 21.8946 9.73478 22 10 22H18C18.2652 22 18.5196 21.8946 18.7071 21.7071ZM9 13H19V6H9V13ZM9 4H19V3C19 2.73478 18.8946 2.48043 18.7071 2.29289C18.5196 2.10536 18.2652 2 18 2H10C9.73478 2 9.48043 2.10536 9.29289 2.29289C9.10536 2.48043 9 2.73478 9 3V4Z" fill="black"/>
<path d="M22.2929 7.29289C22.4804 7.10536 22.7348 7 23 7C23.2652 7 23.5196 7.10536 23.7071 7.29289C23.8946 7.48043 24 7.73478 24 8V20C24 20.2652 23.8946 20.5196 23.7071 20.7071C23.5196 20.8946 23.2652 21 23 21C22.7348 21 22.4804 20.8946 22.2929 20.7071C22.1054 20.5196 22 20.2652 22 20V8C22 7.73478 22.1054 7.48043 22.2929 7.29289Z" fill="black"/>
<path d="M1 19V7C1 6.20435 1.31607 5.44129 1.87868 4.87868C2.44129 4.31607 3.20435 4 4 4H6V6H4C3.73478 6 3.48043 6.10536 3.29289 6.29289C3.10536 6.48043 3 6.73478 3 7V8H6V10H3V19C3 19.2652 3.10536 19.5196 3.29289 19.7071C3.48043 19.8946 3.73478 20 4 20H6V22H4C3.20435 22 2.44129 21.6839 1.87868 21.1213C1.31607 20.5587 1 19.7957 1 19Z" fill="black"/>
<path d="M6 14H5V15H6V14Z" fill="black"/>
<path d="M5 16H6V17H5V16Z" fill="black"/>
<path d="M6 12H5V13H6V12Z" fill="black"/>
<path d="M5 18H6V19H5V18Z" fill="black"/>
</mask>
<g mask="url(#mask0_6392_9528)">
<rect width="24" height="24" fill="black"/>
</g>
</svg>
