<svg width="48" height="32" viewBox="0 0 48 32" fill="none" xmlns="http://www.w3.org/2000/svg">
<line x1="47.5" y1="4" x2="47.5" y2="28" stroke="white"/>
<path fill-rule="evenodd" clip-rule="evenodd" d="M13.0029 8V9C13.0029 9.09647 13.0098 9.19135 13.0229 9.28416C10.1217 10.1386 8.00319 12.8224 8.00319 16V20.6667L6.40319 22.8C5.41526 24.1199 6.35531 26 8.00319 26H22.0032C23.6511 26 24.5911 24.1199 23.6038 22.8008L22.0032 20.6667V16C22.0032 12.8223 19.8845 10.1383 16.9829 9.28401C16.9961 9.19125 17.0029 9.09642 17.0029 9V8C17.0029 6.89491 16.1074 6 15.0029 6C13.8985 6 13.0029 6.89491 13.0029 8ZM10.2032 21.4L9.76319 21.9867L8.40319 23.8H21.6032L20.2432 21.9867L19.8032 21.4V20.6667V16C19.8032 13.3497 17.6535 11.2 15.0032 11.2C12.3529 11.2 10.2032 13.3497 10.2032 16V20.6667V21.4ZM12.2961 28.7071C11.6661 28.0771 12.1123 27 13.0032 27H17.0032C17.8919 27 18.3391 28.0726 17.7135 28.7039C16.2307 30.2002 13.8158 30.2119 12.3151 28.7261L12.2961 28.7071Z" fill="white"/>
</svg>
