<svg width="24" height="24" viewBox="0 0 24 24" fill="none" xmlns="http://www.w3.org/2000/svg">
<mask id="mask0_6392_6282" style="mask-type:alpha" maskUnits="userSpaceOnUse" x="1" y="0" width="22" height="24">
<path d="M12.2085 0.999963C12.9409 1.02483 13.6398 1.32624 14.1616 1.84768C14.7307 2.41653 15.0379 3.19611 15.0097 4.00008V6.00008C15.0097 6.55236 14.5617 7.00008 14.0091 7.00008C13.4565 7.00008 13.0085 6.55236 13.0085 6.00008V4.00008C13.0411 3.72617 12.9462 3.45244 12.7511 3.25738C12.5559 3.06233 12.282 2.9675 12.008 3.00008H4.00348C3.72941 2.9675 3.45552 3.06233 3.26036 3.25738C3.0652 3.45244 2.97032 3.72617 3.00291 4.00008V20.0001C2.97032 20.274 3.0652 20.5477 3.26036 20.7428C3.45552 20.9378 3.72941 21.0327 4.00348 21.0001H12.008C12.282 21.0327 12.5559 20.9378 12.7511 20.7428C12.9462 20.5477 13.0411 20.274 13.0085 20.0001V18.0001C12.9759 17.7262 13.0708 17.4524 13.266 17.2574C13.4611 17.0623 13.735 16.9675 14.0091 17.0001C14.2832 16.9675 14.557 17.0623 14.7522 17.2574C14.9474 17.4524 15.0423 17.7262 15.0097 18.0001L15.0098 20.2005C14.9849 20.9325 14.6833 21.631 14.1616 22.1525C13.5924 22.7213 12.8124 23.0283 12.008 23.0001L3.80299 23.0002C3.07051 22.9753 2.3716 22.6739 1.84987 22.1525C1.2807 21.5836 0.973538 20.8041 1.00179 20.0001L1.00167 3.7997C1.02655 3.06764 1.32814 2.36913 1.84987 1.84768C2.41903 1.27884 3.19905 0.971844 4.00348 1.00008L12.2085 0.999963ZM17.3109 7.30008C17.7 6.91894 18.3227 6.91894 18.7117 7.30008L22.714 11.3001C23.0953 11.6889 23.0953 12.3112 22.714 12.7001L18.7117 16.7001C18.4768 17.0131 18.0808 17.1605 17.6983 17.0772C17.3158 16.9939 17.017 16.6953 16.9337 16.3129C16.8503 15.9306 16.9977 15.5349 17.3109 15.3001L19.6122 13.0001H6.30477C5.75217 13.0001 5.30421 12.5524 5.30421 12.0001C5.30421 11.4478 5.75217 11.0001 6.30477 11.0001H19.6122L17.3109 8.70008C16.9296 8.31124 16.9296 7.68892 17.3109 7.30008Z" fill="#0078AD"/>
</mask>
<g mask="url(#mask0_6392_6282)">
<rect width="24" height="24" fill="black"/>
</g>
</svg>
