<svg width="16" height="16" viewBox="0 0 16 16" fill="none" xmlns="http://www.w3.org/2000/svg">
<path fill-rule="evenodd" clip-rule="evenodd" d="M15.8175 13.3877L9.35144 1.15168C8.77453 0.0604842 7.22472 0.060484 6.64871 1.15192L0.182335 13.3926C-0.35142 14.4032 0.349606 15.6194 1.46797 15.6653L1.53419 15.6666L14.4668 15.6618C15.623 15.6613 16.3619 14.4172 15.8175 13.3877ZM8.0042 6.00418C7.82159 5.98246 7.63911 6.04568 7.50907 6.17572C7.37904 6.30575 7.31582 6.48824 7.33754 6.67085V10.0042C7.33754 10.3724 7.63601 10.6709 8.0042 10.6709C8.3724 10.6709 8.67087 10.3724 8.67087 10.0042V6.67085C8.69259 6.48824 8.62937 6.30575 8.49934 6.17572C8.3693 6.04568 8.18682 5.98246 8.0042 6.00418ZM8.6709 12.0042C8.6709 12.3724 8.37242 12.6708 8.00423 12.6708C7.63604 12.6708 7.33756 12.3724 7.33756 12.0042C7.33756 11.636 7.63604 11.3375 8.00423 11.3375C8.37242 11.3375 8.6709 11.636 8.6709 12.0042Z" fill="#F4C33F"/>
</svg>
