<svg width="24" height="24" viewBox="0 0 24 24" fill="none" xmlns="http://www.w3.org/2000/svg">
<mask id="mask0_6392_3730" style="mask-type:alpha" maskUnits="userSpaceOnUse" x="0" y="0" width="24" height="24">
<path d="M12.2447 13.6575L12.325 13.725L15.935 17.335C16.5442 17.9442 17.3494 18.3064 18.209 18.3585L18.425 18.365H19.135L14.575 22.925C13.1961 24.2943 10.9989 24.3432 9.57047 23.0717L9.415 22.925L4.845 18.355H5.285C6.15269 18.355 6.96926 18.0483 7.61672 17.4741L7.775 17.325L11.375 13.725C11.609 13.5 11.9888 13.4775 12.2447 13.6575ZM11.845 15.395L8.845 18.395C8.597 18.643 8.3298 18.859 8.0434 19.0481L7.825 19.185L10.495 21.855C10.8506 22.2106 11.3088 22.4239 11.8066 22.4669L11.995 22.475L12.1834 22.4669C12.619 22.4293 13.0243 22.2612 13.357 21.9816L13.495 21.855L16.055 19.295C15.703 19.111 15.3766 18.8822 15.0758 18.6137L14.855 18.405L11.845 15.395ZM20.195 6.685L22.925 9.415C24.3057 10.7957 24.3533 12.9874 23.0588 14.415L22.915 14.565L20.175 17.305H18.405C17.82 17.305 17.2512 17.0944 16.8079 16.7169L16.665 16.585L13.055 12.975C12.4432 12.3632 11.3974 12.3272 10.7346 12.867L10.615 12.975L7.015 16.575C6.61 16.989 6.0511 17.241 5.46952 17.2873L5.275 17.295H3.785L1.065 14.575C-0.304286 13.1961 -0.353189 10.9989 0.918291 9.57047L1.065 9.415L3.785 6.695H5.275C5.86 6.695 6.4369 6.9056 6.88906 7.28306L7.035 7.415L10.635 11.015C10.975 11.355 11.415 11.525 11.855 11.525C12.24 11.525 12.625 11.3948 12.943 11.1345L13.075 11.015L16.685 7.405C17.09 6.991 17.6489 6.739 18.2305 6.69274L18.425 6.685H20.195ZM19.565 8.195H18.425C18.2167 8.195 18.0153 8.26444 17.8498 8.39176L17.755 8.475L14.235 11.995L17.755 15.505C17.905 15.655 18.0967 15.7494 18.3011 15.7768L18.425 15.785H19.565L21.855 13.495C22.255 13.095 22.475 12.565 22.475 11.985C22.475 11.4872 22.3012 11.0052 21.9816 10.6234L21.855 10.485L19.565 8.195ZM5.275 8.205H4.415L2.135 10.485C1.3465 11.2735 1.30708 12.5313 2.01673 13.3667L2.135 13.495L4.415 15.775H5.275C5.48333 15.775 5.68472 15.7056 5.85023 15.5782L5.945 15.495L9.445 11.985L5.945 8.485C5.765 8.305 5.525 8.205 5.275 8.205ZM9.415 1.065C10.845 -0.355 13.155 -0.355 14.575 1.065L19.125 5.625H18.415C17.475 5.625 16.595 5.985 15.925 6.655L12.315 10.265C12.055 10.525 11.625 10.525 11.365 10.265L7.765 6.665C7.105 6.005 6.215 5.635 5.275 5.635H4.845L9.415 1.065ZM13.505 2.135C12.675 1.305 11.325 1.305 10.495 2.135L7.825 4.805C8.195 5.015 8.535 5.285 8.845 5.595L11.845 8.595L14.855 5.575C15.215 5.225 15.615 4.925 16.055 4.685L13.505 2.135Z" fill="black"/>
</mask>
<g mask="url(#mask0_6392_3730)">
<rect width="24" height="24" fill="black"/>
</g>
</svg>
