<svg width="32" height="32" viewBox="0 0 32 32" fill="none" xmlns="http://www.w3.org/2000/svg">
<g clip-path="url(#clip0_6392_8278)">
<path fill-rule="evenodd" clip-rule="evenodd" d="M15.9998 31.9998C20.5248 31.9998 24.6113 30.1211 27.5216 27.1013L27.7608 26.8666L27.7567 26.8521C30.3905 24.0001 31.9998 20.1878 31.9998 15.9998C31.9998 7.16338 24.8361 -0.000244141 15.9998 -0.000244141C7.16338 -0.000244141 -0.000244141 7.16338 -0.000244141 15.9998C-0.000244141 20.1878 1.60892 24 4.24268 26.852L4.23861 26.8666L4.48018 27.1037C7.39039 30.1221 11.4759 31.9998 15.9998 31.9998ZM15.9997 17.333C11.3798 17.333 7.28374 19.9706 5.28777 23.9403C3.64073 21.7221 2.66634 18.9746 2.66634 15.9997C2.66634 8.63605 8.63605 2.66634 15.9997 2.66634C23.3633 2.66634 29.333 8.63605 29.333 15.9997C29.333 18.9746 28.3586 21.722 26.7116 23.9402C24.7156 19.9705 20.6196 17.333 15.9997 17.333ZM15.9997 15.9997C18.9454 15.9997 21.333 13.6121 21.333 10.6663C21.333 7.72157 18.945 5.33301 15.9997 5.33301C13.0544 5.33301 10.6663 7.72157 10.6663 10.6663C10.6663 13.6121 13.054 15.9997 15.9997 15.9997Z" fill="white"/>
</g>
<defs>
<clipPath id="clip0_6392_8278">
<rect width="32" height="32" fill="white"/>
</clipPath>
</defs>
</svg>
