<svg width="24" height="24" viewBox="0 0 24 24" fill="none" xmlns="http://www.w3.org/2000/svg">
<mask id="mask0_6392_9542" style="mask-type:alpha" maskUnits="userSpaceOnUse" x="1" y="1" width="22" height="22">
<path d="M21.6994 20.307L19.8894 18.507C20.5597 17.4657 20.8197 16.2127 20.6191 14.9906C20.4185 13.7686 19.7715 12.6645 18.8034 11.8921C17.8354 11.1198 16.6151 10.7342 15.379 10.81C14.143 10.8858 12.979 11.4177 12.1126 12.3025C11.2462 13.1874 10.739 14.3623 10.6892 15.5997C10.6394 16.8371 11.0506 18.0489 11.8431 19.0005C12.6357 19.9521 13.7532 20.5757 14.9792 20.7506C16.2052 20.9254 17.4524 20.6391 18.4794 19.947L20.2794 21.757C20.3724 21.8507 20.483 21.9251 20.6048 21.9759C20.7267 22.0266 20.8574 22.0528 20.9894 22.0528C21.1214 22.0528 21.2521 22.0266 21.374 21.9759C21.4958 21.9251 21.6064 21.8507 21.6994 21.757C21.7977 21.6636 21.876 21.5511 21.9295 21.4265C21.983 21.3018 22.0106 21.1676 22.0106 21.032C22.0106 20.8964 21.983 20.7621 21.9295 20.6375C21.876 20.5129 21.7977 20.4004 21.6994 20.307ZM15.7794 18.737C15.1995 18.739 14.632 18.5688 14.1489 18.2481C13.6657 17.9273 13.2886 17.4704 13.0653 16.9352C12.842 16.4 12.7826 15.8106 12.8945 15.2415C13.0064 14.6725 13.2847 14.1495 13.694 13.7387C14.1034 13.328 14.6255 13.0479 15.1941 12.934C15.7627 12.8202 16.3524 12.8776 16.8883 13.0991C17.4243 13.3205 17.8825 13.6961 18.2049 14.1781C18.5273 14.6602 18.6994 15.2271 18.6994 15.807C18.6994 16.5823 18.3921 17.3261 17.8448 17.8753C17.2974 18.4245 16.5547 18.7343 15.7794 18.737Z" fill="#0078AD"/>
<path d="M9.69938 18.237C9.60642 18.1433 9.49582 18.0689 9.37396 18.0181C9.2521 17.9673 9.12139 17.9412 8.98938 17.9412C8.85737 17.9412 8.72666 17.9673 8.6048 18.0181C8.48294 18.0689 8.37234 18.1433 8.27938 18.237L6.98938 19.537L5.69938 18.237C5.60642 18.1433 5.49582 18.0689 5.37396 18.0181C5.2521 17.9673 5.12139 17.9412 4.98938 17.9412C4.85737 17.9412 4.72666 17.9673 4.6048 18.0181C4.48294 18.0689 4.37234 18.1433 4.27938 18.237L3.98938 18.537V3.94702H15.9894V8.94702C15.9894 9.21224 16.0948 9.46659 16.2823 9.65413C16.4698 9.84166 16.7242 9.94702 16.9894 9.94702C17.2546 9.94702 17.509 9.84166 17.6965 9.65413C17.884 9.46659 17.9894 9.21224 17.9894 8.94702V2.94702C17.9894 2.6818 17.884 2.42745 17.6965 2.23991C17.509 2.05238 17.2546 1.94702 16.9894 1.94702H2.98938C2.72416 1.94702 2.46981 2.05238 2.28227 2.23991C2.09474 2.42745 1.98938 2.6818 1.98938 2.94702V20.947C1.99037 21.1444 2.04977 21.3371 2.1601 21.5009C2.27043 21.6646 2.42676 21.792 2.60938 21.867C2.72806 21.923 2.8582 21.9504 2.98938 21.947C3.12099 21.9478 3.25145 21.9225 3.37329 21.8728C3.49512 21.823 3.60594 21.7497 3.69938 21.657L4.98938 20.357L6.27938 21.657C6.37234 21.7507 6.48294 21.8251 6.6048 21.8759C6.72666 21.9267 6.85737 21.9528 6.98938 21.9528C7.12139 21.9528 7.2521 21.9267 7.37396 21.8759C7.49582 21.8251 7.60642 21.7507 7.69938 21.657L8.98938 20.357L10.2794 21.657C10.3726 21.7502 10.4833 21.8242 10.6052 21.8747C10.727 21.9251 10.8575 21.9511 10.9894 21.9511C11.1213 21.9511 11.2518 21.9251 11.3736 21.8747C11.4955 21.8242 11.6062 21.7502 11.6994 21.657C11.7926 21.5638 11.8666 21.4531 11.9171 21.3312C11.9675 21.2094 11.9935 21.0789 11.9935 20.947C11.9935 20.8151 11.9675 20.6846 11.9171 20.5628C11.8666 20.4409 11.7926 20.3302 11.6994 20.237L9.69938 18.237Z" fill="#0078AD"/>
<path d="M13.9894 7.94702C13.9894 7.6818 13.884 7.42745 13.6965 7.23991C13.509 7.05238 13.2546 6.94702 12.9894 6.94702H6.98938C6.72416 6.94702 6.46981 7.05238 6.28227 7.23991C6.09474 7.42745 5.98938 7.6818 5.98938 7.94702C5.98938 8.21224 6.09474 8.46659 6.28227 8.65413C6.46981 8.84166 6.72416 8.94702 6.98938 8.94702H12.9894C13.2546 8.94702 13.509 8.84166 13.6965 8.65413C13.884 8.46659 13.9894 8.21224 13.9894 7.94702Z" fill="#0078AD"/>
<path d="M6.98938 10.947C6.72416 10.947 6.46981 11.0524 6.28227 11.2399C6.09474 11.4274 5.98938 11.6818 5.98938 11.947C5.98938 12.2122 6.09474 12.4666 6.28227 12.6541C6.46981 12.8416 6.72416 12.947 6.98938 12.947H8.98938C9.2546 12.947 9.50895 12.8416 9.69649 12.6541C9.88402 12.4666 9.98938 12.2122 9.98938 11.947C9.98938 11.6818 9.88402 11.4274 9.69649 11.2399C9.50895 11.0524 9.2546 10.947 8.98938 10.947H6.98938Z" fill="#0078AD"/>
</mask>
<g mask="url(#mask0_6392_9542)">
<rect width="24" height="24" fill="black"/>
</g>
</svg>
