<svg width="24" height="24" viewBox="0 0 24 24" fill="none" xmlns="http://www.w3.org/2000/svg">
<mask id="mask0_6392_6243" style="mask-type:alpha" maskUnits="userSpaceOnUse" x="1" y="3" width="22" height="18">
<path d="M22 4.14131C21.7348 4.14131 21.4804 4.24667 21.2929 4.4342C21.1054 4.62174 21 4.87609 21 5.14131V5.83131L12.69 3.57131C12.1037 3.40961 11.4895 3.37593 10.8891 3.47255C10.2886 3.56918 9.71596 3.79385 9.21 4.13131L6.15 6.13131L6 6.14131H3V5.14131C3 4.87609 2.89464 4.62174 2.70711 4.4342C2.51957 4.24667 2.26522 4.14131 2 4.14131C1.73478 4.14131 1.48043 4.24667 1.29289 4.4342C1.10536 4.62174 1 4.87609 1 5.14131V19.1413C1 19.4065 1.10536 19.6609 1.29289 19.8484C1.48043 20.036 1.73478 20.1413 2 20.1413C2.26522 20.1413 2.51957 20.036 2.70711 19.8484C2.89464 19.6609 3 19.4065 3 19.1413V18.2013C3.85386 18.2906 4.69156 18.4958 5.49 18.8113L8.11 19.8613C8.48 20.0113 8.84 20.1413 9.21 20.2713L9.79 20.4613C10.0389 20.5409 10.2987 20.5813 10.56 20.5813C10.9845 20.5831 11.4021 20.4731 11.7707 20.2625C12.1393 20.0519 12.446 19.748 12.66 19.3813C13.116 19.3923 13.5639 19.2594 13.94 19.0013C14.2185 18.8341 14.4546 18.6048 14.63 18.3313C15.137 18.393 15.6496 18.2763 16.08 18.0013C16.2948 17.8449 16.4387 17.6094 16.4799 17.3469C16.5212 17.0843 16.4565 16.8162 16.3 16.6013C16.1435 16.3865 15.9081 16.2426 15.6456 16.2014C15.383 16.1601 15.1148 16.2249 14.9 16.3813C14.8648 16.4058 14.8229 16.419 14.78 16.419C14.7371 16.419 14.6952 16.4058 14.66 16.3813L14.45 16.2813C14.2978 16.2046 14.1285 16.1681 13.9581 16.1752C13.7878 16.1824 13.6222 16.2329 13.4769 16.3221C13.3316 16.4113 13.2115 16.5361 13.1281 16.6847C13.0446 16.8334 13.0005 17.0009 13 17.1713C13.0017 17.2115 12.9924 17.2514 12.973 17.2867C12.9536 17.322 12.9249 17.3512 12.89 17.3713C12.855 17.3915 12.8154 17.4021 12.775 17.4021C12.7346 17.4021 12.695 17.3915 12.66 17.3713L12.45 17.2713C12.2978 17.1946 12.1285 17.1581 11.9581 17.1652C11.7878 17.1724 11.6222 17.2229 11.4769 17.3121C11.3316 17.4013 11.2115 17.5261 11.1281 17.6747C11.0446 17.8234 11.0005 17.9909 11 18.1613C11 18.2312 10.9837 18.3001 10.9525 18.3626C10.9212 18.4251 10.8759 18.4794 10.82 18.5213C10.763 18.5626 10.6969 18.5896 10.6273 18.6C10.5577 18.6105 10.4866 18.604 10.42 18.5813L9.84 18.3913C9.50667 18.2847 9.17333 18.1647 8.84 18.0313L6.23 17.0013C5.20068 16.569 4.11153 16.2959 3 16.1913V8.19131H4.75C4.75136 8.51053 4.83147 8.82449 4.98323 9.10534C5.13499 9.38619 5.35372 9.62524 5.62 9.80131C6.31128 10.2607 7.09035 10.5716 7.90795 10.7145C8.72555 10.8574 9.5639 10.829 10.37 10.6313L11.65 10.3113L16.27 15.5913C17.4959 16.9615 19.1758 17.8424 21 18.0713V19.1413C21 19.4065 21.1054 19.6609 21.2929 19.8484C21.4804 20.036 21.7348 20.1413 22 20.1413C22.2652 20.1413 22.5196 20.036 22.7071 19.8484C22.8946 19.6609 23 19.4065 23 19.1413V5.14131C23 4.87609 22.8946 4.62174 22.7071 4.4342C22.5196 4.24667 22.2652 4.14131 22 4.14131ZM17.78 14.2313L12.78 8.48131C12.6582 8.34228 12.5003 8.23971 12.3238 8.18499C12.1473 8.13026 11.9591 8.12553 11.78 8.17131L9.91 8.64131C9.38779 8.76999 8.84499 8.79203 8.31406 8.70612C7.78313 8.62021 7.27498 8.42811 6.82 8.14131L10.35 5.79131C10.6167 5.61523 10.918 5.49825 11.2336 5.44823C11.5492 5.39821 11.8719 5.41631 12.18 5.50131L21 7.91131V16.0513C19.751 15.8284 18.6152 15.1864 17.78 14.2313Z" fill="#0078AD"/>
</mask>
<g mask="url(#mask0_6392_6243)">
<rect width="24" height="24" fill="black"/>
</g>
</svg>
