<svg width="24" height="24" viewBox="0 0 24 24" fill="none" xmlns="http://www.w3.org/2000/svg">
<mask id="mask0_6392_3758" style="mask-type:alpha" maskUnits="userSpaceOnUse" x="0" y="0" width="24" height="24">
<path d="M5.7157 9.79492C6.2292 9.79492 6.6513 10.1812 6.70898 10.6784L6.7157 10.7949H7.3057C8.00525 10.7967 8.69059 10.9802 9.29357 11.3272L9.5157 11.4649L11.5157 12.7949H14.2157C15.8135 12.7949 17.1194 14.0437 17.2106 15.6186L17.2157 15.7949L17.5057 15.6949C19.246 15.0806 21.1765 15.4766 22.5322 16.7094L22.7057 16.8749L23.3457 17.5549C23.7017 17.9109 23.8547 18.4219 23.7537 18.9139C23.6637 19.3576 23.3785 19.7341 22.9819 19.942L22.8457 20.0049L15.2457 23.0749C14.6077 23.3189 13.9297 23.4479 13.2457 23.4549C12.632 23.4532 12.0234 23.3508 11.4439 23.1522L11.1567 23.0449L6.6057 21.2249C6.46081 21.5307 6.17133 21.7393 5.8412 21.7854L5.7157 21.7949H1.2157C0.702198 21.7949 0.280096 21.4086 0.222416 20.9115L0.215698 20.7949V10.7949C0.215698 10.2824 0.601122 9.85945 1.09894 9.80165L1.2157 9.79492H5.7157ZM7.3057 12.7949H6.7157V19.1149L11.9067 21.2149C12.6877 21.5174 13.546 21.5426 14.3407 21.2905L14.5557 21.2149L21.3957 18.4749L21.2557 18.3249C20.4858 17.5522 19.3607 17.2614 18.3198 17.5533L18.1257 17.6149L15.2157 18.6149C14.9597 18.7101 14.6922 18.7682 14.4203 18.7876L14.2157 18.7949H11.2157C10.6627 18.7949 10.2157 18.3469 10.2157 17.7949C10.2157 17.2823 10.6011 16.8595 11.0989 16.8017L11.2157 16.7949H14.2157C14.7687 16.7949 15.2157 16.3469 15.2157 15.7949C15.2157 15.2824 14.8303 14.8595 14.3325 14.8017L14.2157 14.7949H11.2157C11.0589 14.7941 10.9047 14.7562 10.7663 14.6847L10.6657 14.6249L8.4157 13.1249C8.13198 12.9415 7.80933 12.8315 7.47419 12.8026L7.3057 12.7949ZM4.7157 11.7949H2.2157V19.7949H4.7157V11.7949Z" fill="#333333"/>
<path d="M20.075 10.827L19.5833 10.7287L17.518 9.64685H17.4197L15.3544 10.7287C15.0023 10.8924 14.5894 10.8549 14.2726 10.6303C13.9439 10.3957 13.7733 9.99751 13.83 9.59768L14.2234 7.33572V7.23737L12.5516 5.66384C12.2603 5.36544 12.1482 4.9355 12.2565 4.53286C12.4167 4.16892 12.7495 3.91014 13.1416 3.84444L15.4528 3.50023H15.5019L16.5346 1.38579C16.7145 1.03288 17.0729 0.806518 17.4688 0.795713C17.8718 0.78231 18.2421 1.01619 18.4031 1.38579L19.4358 3.45105H19.4849L21.7961 3.79526C22.1929 3.82339 22.5283 4.09966 22.632 4.48369C22.7756 4.87651 22.6798 5.31689 22.3861 5.61467L20.7143 7.1882V7.28655L21.1076 9.5485C21.1906 9.95139 21.014 10.3633 20.6651 10.5811C20.501 10.7202 20.2897 10.7906 20.075 10.7778V10.827ZM17.4688 8.66339L17.9606 8.76174L20.0258 9.84354C20.0258 9.89271 20.075 9.89271 20.1242 9.84354L19.7308 7.58158C19.6697 7.21646 19.7996 6.84546 20.075 6.59812L21.6977 5.02459V4.92624H21.5994L19.3374 4.58203C18.9806 4.52984 18.6701 4.31066 18.5015 3.99196L17.518 1.82835H17.4688C17.4197 1.82835 17.4197 1.82835 17.4197 1.87752L16.387 3.89361C16.2027 4.19809 15.8997 4.41194 15.5511 4.48369L13.2891 4.77872L13.1908 4.87707L14.9119 6.49978C15.1537 6.74627 15.2633 7.0934 15.2069 7.43407L14.8135 9.7452V9.84354H14.9119L16.9771 8.76174C17.1281 8.68224 17.2989 8.64808 17.4688 8.66339Z" fill="#222222"/>
<path fill-rule="evenodd" clip-rule="evenodd" d="M18.174 1.48565C18.0539 1.21001 17.7777 1.03558 17.4772 1.04558L17.4757 1.04562C17.1719 1.05391 16.8969 1.22722 16.7582 1.49755L15.6581 3.75023H15.4713L13.1809 4.09136C12.8789 4.14265 12.622 4.33919 12.4932 4.61625C12.4164 4.92662 12.5045 5.25517 12.727 5.48564L14.4735 7.12936V7.3573L14.0771 9.63643C14.035 9.9425 14.166 10.2468 14.4175 10.4266C14.6596 10.598 14.9745 10.6275 15.244 10.5043L17.3582 9.39685H17.5796L19.6675 10.4905L19.825 10.5221V10.5125L20.0899 10.5283C20.2404 10.5372 20.3885 10.4878 20.5035 10.3904L20.5174 10.3787L20.5328 10.3691C20.793 10.2066 20.9247 9.89939 20.8628 9.59892L20.8613 9.59136L20.4643 7.30812V7.08018L22.2112 5.43601C22.4347 5.2071 22.5071 4.87018 22.3972 4.5695L22.3935 4.55932L22.3907 4.54885C22.3147 4.26758 22.069 4.06524 21.7784 4.04464L21.7688 4.04396L19.4665 3.70105H19.2813L18.174 1.48565ZM20.325 11.0107C20.325 11.0107 20.0702 11.0195 19.9073 11.0107C19.7472 11.002 19.4991 10.9668 19.4991 10.9668L17.4689 9.90331L15.46 10.9556C15.0265 11.1572 14.5181 11.1107 14.1281 10.8343C13.7234 10.5454 13.5126 10.0548 13.5826 9.56252L13.5837 9.55482L13.9688 7.341L12.3725 5.83861C12.0196 5.477 11.8838 4.95583 12.0151 4.46789L12.0201 4.44953L12.0277 4.43213C12.2219 3.9911 12.6251 3.6775 13.1003 3.59788L13.1048 3.59713L15.3389 3.26443L16.3118 1.27223C16.5332 0.837985 16.9741 0.559393 17.4613 0.545828C17.9641 0.529407 18.4262 0.819914 18.6296 1.27955L19.5973 3.21503L21.824 3.54666C22.3188 3.58599 22.7367 3.92997 22.8705 4.408C23.0419 4.88903 22.9232 5.42619 22.5642 5.79022L22.5576 5.79684L20.969 7.29182L21.3534 9.50208C21.4542 10.0002 21.2391 10.5088 20.8127 10.7836C20.6707 10.8998 20.5028 10.9773 20.325 11.0107ZM17.4668 1.57834L17.4689 1.57835H17.679L18.7258 3.88124C18.8579 4.12613 19.098 4.29435 19.3736 4.33467L19.3751 4.33487L21.6183 4.67624H21.9478V5.1304L20.2422 6.78428C20.0306 6.97429 19.9306 7.25909 19.9773 7.5396L20.3928 9.92856L20.301 10.0203C20.2572 10.0641 20.1723 10.1304 20.0566 10.1304C19.9893 10.1304 19.9075 10.1059 19.8462 10.0358C19.844 10.0333 19.8419 10.0308 19.8398 10.0283L17.8764 8.99984L17.4341 8.91139C17.3163 8.90309 17.1983 8.92782 17.0936 8.98295L14.9734 10.0935H14.5635V9.72407L14.9603 7.39323C15.0032 7.13295 14.9202 6.86732 14.7366 6.67811L12.832 4.88235L13.1725 4.54182L15.5092 4.23704C15.7834 4.17821 16.0217 4.00997 16.1688 3.7713L17.1735 1.80984C17.178 1.77905 17.1927 1.71405 17.2491 1.65771C17.3141 1.59269 17.3907 1.58311 17.4128 1.58064C17.4348 1.57821 17.4582 1.57831 17.4668 1.57834ZM17.4702 2.32728L16.6055 4.01549L16.6009 4.0231C16.3805 4.38712 16.0183 4.64278 15.6015 4.72856L15.5926 4.7304L13.6662 4.98167L15.0905 6.32457C15.3882 6.62803 15.523 7.0555 15.4536 7.4749L15.4534 7.47602L15.1167 9.45404L16.8607 8.54052C17.0543 8.43863 17.2734 8.39477 17.4913 8.4144L17.5047 8.41561L18.0448 8.52363L19.8009 9.44347L19.4843 7.62284C19.4093 7.175 19.5677 6.71997 19.9043 6.41549L21.2363 5.12386L19.3013 4.8294C18.8659 4.7655 18.4864 4.49784 18.2805 4.10889L18.277 4.10225L17.4702 2.32728Z" fill="#222222"/>
</mask>
<g mask="url(#mask0_6392_3758)">
<rect width="24" height="24" fill="black"/>
</g>
</svg>
