<svg width="24" height="24" viewBox="0 0 24 24" fill="none" xmlns="http://www.w3.org/2000/svg">
<mask id="mask0_6392_9515" style="mask-type:alpha" maskUnits="userSpaceOnUse" x="0" y="0" width="23" height="23">
<path fill-rule="evenodd" clip-rule="evenodd" d="M22.36 4.78001C22.1757 4.54063 21.9396 4.34609 21.6695 4.211C21.3993 4.07591 21.102 4.00377 20.8 4.00001H7.22996L6.99996 2.58001C6.90238 2.12515 6.64929 1.71853 6.28424 1.43015C5.9192 1.14177 5.46505 0.989658 4.99996 1.00001H1.82996C1.56474 1.00001 1.31039 1.10536 1.12285 1.2929C0.935313 1.48044 0.829956 1.73479 0.829956 2.00001C0.829956 2.26522 0.935313 2.51958 1.12285 2.70711C1.31039 2.89465 1.56474 3.00001 1.82996 3.00001H4.99996L7.67996 17.42C7.77753 17.8749 8.03063 18.2815 8.39567 18.5699C8.76071 18.8582 9.21486 19.0104 9.67996 19H17.88C18.1452 19 18.3995 18.8947 18.5871 18.7071C18.7746 18.5196 18.88 18.2652 18.88 18C18.88 17.7348 18.7746 17.4804 18.5871 17.2929C18.3995 17.1054 18.1452 17 17.88 17H9.63996L9.07996 14H19.34C19.7965 13.9988 20.2389 13.8414 20.5936 13.5539C20.9484 13.2665 21.1941 12.8664 21.29 12.42L22.75 6.70001C22.8362 6.37147 22.8458 6.02752 22.7782 5.69466C22.7106 5.36179 22.5675 5.04888 22.36 4.78001ZM19.36 12H8.71996L7.59996 6.00001H20.77C20.7974 6.02875 20.8165 6.06438 20.8253 6.10311C20.8341 6.14184 20.8323 6.18224 20.82 6.22001L19.36 12Z" fill="black"/>
<path d="M9.49995 23C10.3284 23 11 22.3284 11 21.5C11 20.6716 10.3284 20 9.49995 20C8.67153 20 7.99995 20.6716 7.99995 21.5C7.99995 22.3284 8.67153 23 9.49995 23Z" fill="black"/>
<path d="M19 21.5C19 22.3284 18.3284 23 17.5 23C16.6715 23 16 22.3284 16 21.5C16 20.6716 16.6715 20 17.5 20C18.3284 20 19 20.6716 19 21.5Z" fill="black"/>
</mask>
<g mask="url(#mask0_6392_9515)">
<rect width="24" height="24" fill="black"/>
</g>
</svg>
